<?xml version="1.0" standalone="no"?>
<!DOCTYPE svg PUBLIC "-//W3C//DTD SVG 20010904//EN"
 "http://www.w3.org/TR/2001/REC-SVG-20010904/DTD/svg10.dtd">
<svg version="1.0" xmlns="http://www.w3.org/2000/svg"
 width="962.000000pt" height="962.000000pt" viewBox="0 0 962.000000 962.000000"
 preserveAspectRatio="xMidYMid meet">

<g transform="translate(0.000000,962.000000) scale(0.100000,-0.100000)"
fill="#ffffff" stroke="none">
<path d="M4551 8670 c-171 -24 -306 -93 -431 -219 -69 -70 -94 -104 -132 -181
-69 -137 -90 -227 -92 -380 -1 -144 14 -214 70 -324 48 -94 58 -106 289 -365
110 -124 242 -274 294 -334 l94 -110 61 64 c34 35 88 94 121 130 33 37 132
142 221 235 180 189 242 269 286 364 51 114 69 194 75 335 7 161 -13 252 -84
395 -39 78 -63 111 -133 181 -71 71 -101 93 -180 132 -52 26 -122 54 -154 62
-76 19 -223 26 -305 15z m238 -431 c109 -48 174 -152 175 -279 2 -131 -66
-235 -185 -290 -104 -47 -252 -16 -339 70 -116 116 -122 299 -14 419 93 104
238 136 363 80z"/>
<path d="M5596 8169 c30 -103 48 -252 39 -333 -20 -198 -112 -418 -238 -571
-47 -56 -371 -397 -642 -673 l-121 -123 -24 34 c-14 19 -165 182 -336 363
-316 333 -419 448 -486 540 -46 63 -103 181 -120 250 l-13 51 -85 -96 c-47
-53 -441 -454 -876 -891 -435 -437 -871 -878 -970 -980 -98 -101 -244 -251
-323 -332 -242 -247 -302 -365 -302 -592 0 -119 25 -212 84 -318 38 -67 160
-211 243 -287 27 -25 305 -297 619 -605 851 -838 1032 -1015 1355 -1326 419
-405 581 -561 780 -755 318 -311 416 -403 451 -420 19 -10 55 -33 82 -52 26
-19 47 -32 47 -28 0 3 17 -2 38 -13 65 -34 99 -41 119 -27 10 7 47 17 82 23
45 8 73 19 91 37 14 14 31 25 37 25 13 0 135 101 196 162 23 23 69 63 102 87
32 25 53 47 46 49 -8 3 -4 9 10 16 13 6 29 23 36 36 7 14 13 21 13 16 0 -5 18
10 40 34 22 24 40 47 40 52 0 4 6 8 14 8 8 0 32 19 53 42 21 22 56 59 78 80
95 92 105 104 102 118 -1 8 4 15 11 15 7 0 35 25 62 54 42 48 50 53 64 42 14
-12 16 -10 16 18 0 21 5 31 15 31 18 0 64 49 65 68 0 6 6 12 14 12 8 0 17 8
20 18 3 10 28 41 56 70 27 29 50 59 50 67 0 11 7 14 23 10 17 -5 31 3 62 36
22 23 52 54 68 69 15 16 27 33 27 39 0 6 9 11 20 11 11 0 20 7 20 15 0 8 9 20
20 27 11 7 20 18 20 25 0 6 12 18 28 25 15 7 27 18 27 24 0 11 30 44 40 44 11
0 65 58 65 69 0 5 16 15 35 22 33 12 47 29 25 29 -5 0 -10 5 -10 10 0 6 7 10
15 10 8 0 15 5 15 10 0 6 6 10 14 10 8 0 18 9 21 20 3 11 15 20 26 20 12 0 19
7 19 20 0 11 7 20 14 20 19 0 146 127 146 146 0 8 7 14 15 14 7 0 18 6 22 14
4 7 22 21 40 30 18 9 37 25 43 36 20 38 87 106 240 245 36 33 67 64 70 70 8
18 65 85 71 85 4 0 24 16 45 36 24 23 34 38 27 41 -19 7 -16 23 5 23 23 0 42
19 42 43 0 13 5 17 14 14 10 -4 13 -1 9 9 -4 11 4 14 32 14 33 0 36 2 24 16
-11 13 -7 20 29 51 23 19 42 42 42 50 0 8 11 24 25 35 14 11 32 33 40 48 8 16
28 36 44 46 16 9 36 32 45 50 8 19 20 34 26 34 5 0 10 6 10 14 0 8 12 17 28
20 20 5 32 17 45 51 11 25 25 45 33 45 8 0 14 6 14 13 0 7 23 36 51 65 28 29
49 59 46 66 -3 7 2 20 11 28 42 37 67 74 64 96 -2 13 3 25 12 28 9 3 16 15 16
26 0 11 5 28 11 40 28 52 41 284 17 300 -10 6 -10 8 0 8 6 0 12 7 12 15 0 8
-4 15 -10 15 -5 0 -10 14 -10 30 0 17 -4 30 -10 30 -5 0 -10 8 -10 17 0 9 -15
30 -32 47 -18 17 -33 36 -34 41 -1 29 -18 65 -30 65 -7 0 -16 12 -19 28 -52
246 -72 279 -344 557 -308 314 -819 832 -1276 1295 -421 425 -724 734 -785
800 -50 53 -59 86 -70 257 -12 176 -18 212 -49 297 -32 92 -42 88 -15 -5z
m-1896 -777 c0 -19 238 -286 560 -627 203 -216 312 -336 333 -367 12 -18 39
-41 60 -52 30 -14 38 -23 34 -38 -5 -17 -2 -19 16 -14 12 3 27 6 34 6 6 0 18
7 27 15 13 14 18 12 44 -12 16 -16 144 -140 285 -277 l257 -249 -62 -66 c-34
-36 -183 -189 -329 -339 -247 -253 -269 -273 -289 -262 -11 6 -72 64 -133 128
-228 236 -603 618 -1003 1022 -226 228 -428 434 -449 458 l-39 43 276 277
c151 152 292 296 313 320 35 38 65 54 65 34z m2104 -301 c3 -4 33 -19 66 -31
33 -12 60 -27 60 -32 0 -5 5 -6 12 -2 7 5 9 2 5 -8 -4 -12 2 -17 21 -21 15 -3
30 -1 33 4 3 5 16 -2 29 -16 19 -21 21 -25 7 -25 -9 0 -17 5 -17 12 0 6 -3 8
-6 5 -12 -11 18 -38 36 -32 11 3 20 -1 24 -10 3 -9 2 -13 -4 -10 -6 3 -7 -1
-4 -10 4 -9 12 -14 20 -11 7 3 18 -2 24 -10 10 -11 10 -14 1 -14 -7 0 -9 -5
-6 -11 4 -6 14 -8 22 -5 8 3 11 1 8 -4 -3 -6 5 -14 18 -19 14 -6 28 -15 32
-21 6 -9 2 -9 -14 -1 -31 17 -25 5 11 -20 18 -13 28 -17 23 -8 -4 7 8 -1 26
-19 28 -27 32 -34 19 -42 -12 -8 -13 -11 -1 -19 10 -6 -59 -82 -265 -292 -154
-156 -321 -327 -371 -379 l-92 -95 -185 185 c-102 101 -183 186 -181 188 3 3
11 -1 20 -8 23 -19 28 -6 7 20 -18 23 -19 70 -1 70 5 0 12 18 15 40 4 25 14
45 26 51 39 21 58 43 45 51 -9 6 -9 8 2 8 17 0 45 32 61 70 7 17 19 30 26 30
8 0 14 6 14 14 0 8 9 17 19 21 11 3 23 15 26 26 4 10 13 19 21 19 8 0 14 5 14
11 0 6 12 23 28 38 38 38 75 82 94 111 8 14 27 37 41 53 14 15 23 27 19 27 -3
0 4 7 16 16 12 8 22 21 23 27 0 7 21 29 45 50 44 36 77 47 88 28z m-2751 -688
c293 -284 402 -397 416 -431 l14 -33 -109 -112 c-60 -62 -188 -193 -284 -292
-192 -196 -1005 -1029 -1189 -1217 -63 -65 -119 -118 -124 -118 -11 0 -300
291 -349 351 -88 109 -115 223 -84 364 16 76 45 139 85 190 88 109 1424 1465
1444 1465 5 0 86 -75 180 -167z m3397 62 c19 0 41 -3 48 -8 7 -6 12 -5 12 2 0
6 6 11 13 11 16 0 598 -581 611 -610 7 -16 -7 -37 -90 -127 -90 -98 -945 -973
-1341 -1372 l-162 -164 -198 193 c-272 267 -493 498 -493 518 0 5 169 182 377
391 271 275 379 378 385 369 7 -10 8 -9 6 4 -4 20 785 821 792 805 3 -7 21
-12 40 -12z m-1680 -124 c0 -12 -8 -16 -42 -25 -16 -3 -28 -3 -28 2 0 4 12 13
28 19 36 14 42 15 42 4z m-683 -971 c219 -221 402 -412 408 -426 8 -23 0 -34
-107 -142 -64 -64 -232 -235 -375 -380 -196 -199 -264 -262 -282 -262 -18 0
-112 89 -388 368 -431 434 -440 444 -425 476 6 13 132 147 280 297 148 151
312 318 363 372 52 53 102 97 111 97 9 0 196 -180 415 -400z m3212 242 c-19
-20 -35 -39 -36 -41 -2 -2 -5 -2 -8 1 -6 6 67 85 74 80 3 -1 -11 -19 -30 -40z
m24 -56 c5 -11 13 -13 36 -6 17 5 30 5 30 2 -5 -33 32 -52 57 -31 14 11 36 -8
161 -136 80 -83 163 -173 184 -201 123 -161 131 -381 20 -529 -44 -57 -1268
-1294 -1313 -1327 l-30 -21 -348 349 c-192 192 -354 360 -360 372 -10 22 -1
34 115 150 68 70 132 137 141 150 9 13 22 21 30 18 8 -3 13 0 11 7 -1 7 4 11
11 9 8 -1 11 2 7 9 -11 16 57 82 67 66 7 -9 8 -8 6 4 -4 23 421 459 441 452
13 -4 13 -3 2 5 -10 7 -7 13 14 28 15 11 46 39 69 64 138 148 159 168 172 163
8 -3 14 1 14 11 0 9 7 19 15 22 8 4 12 10 9 15 -3 5 2 9 11 9 9 0 24 13 33 30
9 16 20 30 25 30 4 0 7 3 7 8 0 4 52 61 115 127 63 66 115 115 115 110 0 -6
-25 -36 -55 -68 -30 -31 -49 -57 -42 -57 7 0 18 5 25 12 7 7 12 9 12 6 0 -4
-7 -14 -16 -22 -8 -9 -11 -16 -5 -16 6 0 23 22 39 50 15 27 32 48 39 45 7 -2
10 1 7 8 -2 7 9 20 26 29 16 9 30 25 30 35 0 15 -2 16 -10 3 -8 -13 -10 -12
-10 3 0 9 4 17 10 17 5 0 14 -8 19 -17 7 -12 10 -14 11 -4 0 11 3 11 15 1 13
-10 15 -9 15 9 0 24 15 28 23 7z m107 -20 c0 -3 -4 -8 -10 -11 -5 -3 -10 -1
-10 4 0 6 5 11 10 11 6 0 10 -2 10 -4z m-4482 -938 c108 -112 327 -335 488
-497 253 -254 294 -292 310 -283 19 10 295 287 665 665 157 161 241 237 264
237 11 0 4 -29 -7 -34 -7 -3 -1 -3 14 0 24 5 56 -24 336 -305 171 -171 320
-324 332 -340 l20 -30 -152 -158 c-160 -166 -1131 -1147 -1377 -1391 -80 -78
-148 -141 -153 -140 -14 5 -551 530 -1145 1119 -383 380 -573 575 -573 589 0
26 737 770 763 770 11 0 101 -85 215 -202z m3001 -1102 l354 -355 -20 -25
c-17 -21 -346 -355 -1519 -1544 -123 -125 -144 -143 -160 -133 -11 6 -178 168
-373 359 l-354 349 154 154 c85 85 239 241 343 348 147 152 190 191 198 180 8
-11 9 -10 4 4 -5 15 52 78 251 277 141 143 260 257 265 254 5 -3 7 0 6 8 -2 7
3 12 10 10 8 -1 11 2 8 6 -3 5 3 17 14 27 11 10 20 15 20 10 0 -4 7 -2 15 5 8
7 12 16 9 22 -9 13 380 398 402 398 12 0 156 -137 373 -354z"/>
<path d="M4640 6336 c0 -2 7 -9 15 -16 9 -7 15 -8 15 -2 0 5 -7 12 -15 16 -8
3 -15 4 -15 2z"/>
<path d="M6210 6756 c0 -2 7 -6 15 -10 8 -3 15 -1 15 4 0 6 -7 10 -15 10 -8 0
-15 -2 -15 -4z"/>
<path d="M6380 6430 c-18 -12 -2 -12 25 0 13 6 15 9 5 9 -8 0 -22 -4 -30 -9z"/>
<path d="M5649 5703 c-13 -16 -12 -17 4 -4 9 7 17 15 17 17 0 8 -8 3 -21 -13z"/>
<path d="M7070 5380 c0 -5 5 -10 11 -10 5 0 7 5 4 10 -3 6 -8 10 -11 10 -2 0
-4 -4 -4 -10z"/>
<path d="M7028 5331 c-18 -21 -14 -33 8 -24 8 3 11 9 8 14 -3 5 2 9 10 9 9 0
16 5 16 10 0 17 -24 11 -42 -9z"/>
<path d="M6700 4990 c-8 -5 -12 -12 -9 -15 4 -3 12 1 19 10 14 17 11 19 -10 5z"/>
<path d="M6419 4720 c-31 -33 -53 -60 -50 -60 14 0 80 62 86 80 4 11 11 18 16
15 5 -4 9 1 9 9 0 9 -1 16 -2 16 -2 0 -28 -27 -59 -60z"/>
<path d="M5527 3795 c-15 -11 -17 -17 -8 -32 9 -16 10 -16 11 -1 0 9 5 20 12
24 7 5 8 3 3 -5 -5 -9 -2 -12 11 -9 20 4 33 38 14 38 -6 0 -8 -5 -4 -12 6 -10
5 -10 -7 -1 -11 9 -18 8 -32 -2z"/>
<path d="M5595 3780 c-3 -6 1 -7 9 -4 18 7 21 14 7 14 -6 0 -13 -4 -16 -10z"/>
<path d="M5475 3760 c-3 -5 1 -10 9 -10 9 0 16 5 16 10 0 6 -4 10 -9 10 -6 0
-13 -4 -16 -10z"/>
</g>
</svg>
